<?xml version="1.0" standalone="no"?><!DOCTYPE svg PUBLIC "-//W3C//DTD SVG 1.1//EN" "http://www.w3.org/Graphics/SVG/1.1/DTD/svg11.dtd"><svg t="1682682556161" class="icon" viewBox="0 0 1024 1024" version="1.1" xmlns="http://www.w3.org/2000/svg" p-id="11701" width="128" height="128" xmlns:xlink="http://www.w3.org/1999/xlink"><path d="M95.98419 757.970439c-22.582706-36.534861 4.963419-93.963841 8.187083-100.394114C105.262884 655.631893 153.532565 573.02763 153.532565 443.467031v-85.282121C153.532565 127.206812 280.739378 0 511.717475 0c94.458478 0 174.606615 2.746084 198.877907 36.398409a39.229776 39.229776 0 0 1 6.310877 13.525745c23.776655 0.562862 46.137628 9.312808 65.616065 25.789313C846.944438 130.294025 869.902385 257.415555 869.902385 358.18491v85.282121c0 146.122387 47.297465 210.868573 47.757988 211.499662 0.614031 0.818708 1.14278 1.688586 1.62036 2.609632 3.206608 6.430272 30.735677 63.859253 8.187084 100.394114C919.945934 770.114613 903.844669 784.595517 869.902385 784.595517h-102.338546a17.056424 17.056424 0 1 1 0-34.112849h102.338546c14.634412 0 24.237179-3.513623 28.518342-10.421475 9.722162-15.657797-1.637417-50.487016-9.108131-66.1107C881.466641 662.625027 835.789537 590.459296 835.789537 443.467031v-85.282121c0-117.007071-29.558783-217.674087-75.32117-256.443339-17.534004-14.839089-36.603087-20.280088-58.332971-16.69824a16.988199 16.988199 0 0 1-15.760136-5.748015 16.971142 16.971142 0 0 1-3.206608-16.459449c1.398627-4.212937 0.409354-5.577451-0.255846-6.481441C666.896823 34.112849 562.085096 34.112849 511.717475 34.112849c-147.828029 0-324.072061 56.217974-324.072061 324.072061v85.282121c0 139.57272-51.408063 226.867499-53.608342 230.517575-6.805513 13.83276-18.966744 50.026492-9.022848 66.076587 4.281162 6.907852 13.883929 10.421475 28.518341 10.421475h102.338546a17.056424 17.056424 0 0 1 0 34.112849H153.532565c-33.976397 0-50.043549-14.480904-57.548375-26.625078zM460.548202 648.144123a17.056424 17.056424 0 0 0 0-34.112849c-0.23879 0-23.70843-0.289959-35.903773-24.680646a17.056424 17.056424 0 1 0-30.530999 15.248444C415.655694 647.649486 458.723165 648.144123 460.548202 648.144123z m136.451395-170.564243a17.056424 17.056424 0 0 0 17.056424-17.056424v-11.223128c1.108668 1.057498 1.842094 1.927376 1.927376 2.046771a17.056424 17.056424 0 0 0 30.258097-15.760136C641.175735 425.847745 625.091527 409.354183 596.999597 409.354183s-44.176139 16.493562-49.241897 26.23278a16.783521 16.783521 0 0 0 6.907852 22.446255 17.295214 17.295214 0 0 0 23.094398-6.242652c0.170564-0.255846 1.023385-1.245119 2.183222-2.387899V460.523456a17.056424 17.056424 0 0 0 17.056425 17.056424z m-170.564243 0a17.056424 17.056424 0 0 0 17.056424-17.056424v-11.223128c1.108668 1.057498 1.842094 1.927376 1.927376 2.046771a17.056424 17.056424 0 0 0 30.258097-15.760136C470.611493 425.847745 454.527285 409.354183 426.435354 409.354183s-44.176139 16.493562-49.241897 26.23278a16.766465 16.766465 0 0 0 6.907852 22.446255c8.016519 4.554065 18.3186 1.603304 23.111455-6.242652 0.170564-0.255846 0.989273-1.245119 2.166165-2.387899V460.523456a17.056424 17.056424 0 0 0 17.056425 17.056424zM183.500703 853.332907C39.629764 889.304906 2.412646 996.402194 0.894624 1000.939203a17.073481 17.073481 0 0 0 32.373094 10.77966c0.307016-0.938103 32.594827-93.82739 158.522407-125.296493a17.056424 17.056424 0 0 0-8.289422-33.089463z m839.022567 147.606296c-1.500965-4.537009-38.718083-111.634297-182.606079-147.606296a17.056424 17.056424 0 0 0-8.255309 33.089463c124.972421 31.247369 157.226119 121.544079 158.522407 125.296493a17.039368 17.039368 0 1 0 32.338981-10.77966z m-238.210022-132.221401a14.088606 14.088606 0 0 0-0.392298-3.018987 18.07981 18.07981 0 0 0-1.398626-3.428342c-0.324072-0.596975-0.392298-1.279232-0.76754-1.85915-0.170564-0.255846-0.460523-0.392298-0.648144-0.648144-0.71637-0.95516-1.62036-1.705642-2.52435-2.507294-0.835765-0.733426-1.62036-1.466852-2.558464-2.012659-0.307016-0.170564-0.494636-0.460523-0.818708-0.631087l-68.225698-34.095792a17.039368 17.039368 0 0 0-17.090537 1.057498l-102.338545 68.225697A17.056424 17.056424 0 0 0 579.943172 903.990487v60.482081c-10.148572 8.118858-35.068008 24.800041-68.225697 24.80004-32.833617 0-57.991843-16.766465-68.225697-24.85121V903.990487a17.056424 17.056424 0 0 0-7.590109-14.190945l-102.338545-68.225697a17.056424 17.056424 0 0 0-17.090538-1.057498l-68.225697 34.095792c-0.307016 0.153508-0.494636 0.443467-0.767539 0.614031-1.006329 0.562862-1.825037 1.330401-2.694915 2.09794-0.852821 0.767539-1.705642 1.500965-2.387899 2.404956-0.221734 0.255846-0.511693 0.409354-0.71637 0.682257-0.409354 0.614031-0.47758 1.313345-0.801652 1.961489a16.544732 16.544732 0 0 0-1.347458 3.274833 16.664127 16.664127 0 0 0-0.409354 3.155439c-0.068226 1.108668-0.119395 2.149109 0.017057 3.257777 0.170564 1.176893 0.528749 2.234392 0.90399 3.360115 0.23879 0.682257 0.23879 1.415683 0.562862 2.080884 0.170564 0.324072 0.460523 0.494636 0.631088 0.801652 0.545806 0.972216 1.296288 1.773868 2.046771 2.626689 0.784596 0.886934 1.535078 1.773868 2.439068 2.456126 0.272903 0.204677 0.409354 0.494636 0.682257 0.682256l102.338546 68.225698a17.056424 17.056424 0 0 0 18.932631-28.38189l-77.89669-51.919756 33.089464-16.544731L409.378929 913.115674V972.216184c0 4.519952 1.807981 8.869341 4.997533 12.058892C415.979766 985.87838 454.152043 1023.385457 511.717475 1023.385457s95.73771-37.507077 97.341014-39.110381A17.005255 17.005255 0 0 0 614.056021 972.216184v-59.10051l86.52724-57.66777 33.089463 16.527675-77.913746 51.936812a17.056424 17.056424 0 1 0 18.932631 28.38189l102.338546-68.225698c0.272903-0.187621 0.409354-0.47758 0.682257-0.682256 0.921047-0.699313 1.67153-1.586247 2.473181-2.473182 0.733426-0.852821 1.466852-1.637417 2.012658-2.592577 0.170564-0.307016 0.47758-0.494636 0.648145-0.818708 0.341128-0.699313 0.341128-1.449796 0.579918-2.166166 0.358185-1.074555 0.733426-2.09794 0.869878-3.223664a16.135377 16.135377 0 0 0 0.017056-3.394228zM711.70405 252.435079c-122.20928 91.644168-369.015739 103.89068-436.644462 105.493985V409.354183c0 64.507397 49.361292 197.018757 66.434773 231.165718C356.793973 671.136183 437.743763 767.539093 513.849528 767.539093c52.926085 0 108.13773-46.581095 142.028845-85.282122h-44.977791A51.049878 51.049878 0 0 1 562.886748 716.36982c-28.211326 0-51.169273-22.957947-51.169273-51.169273s22.957947-51.169273 51.169273-51.169273c22.207464 0 40.952475 14.293284 48.013834 34.112849h70.954725a106.432088 106.432088 0 0 0 4.366445-7.624222c7.72656-15.45312 22.053957-51.169273 35.477363-91.524773a17.056424 17.056424 0 0 1-0.545806-18.915574 16.800578 16.800578 0 0 1 8.664664-6.669062c11.564256-37.984657 21.013515-77.214433 22.582705-106.005677-19.307872-15.947757-67.986907-61.061999-67.986907-110.389178a17.056424 17.056424 0 1 1 34.112849 0c0 34.829218 44.346703 75.832862 61.420183 88.710463a17.056424 17.056424 0 0 1 6.82257 13.628083c0 34.146961-11.73482 82.928335-25.874595 128.605439A84.770429 84.770429 0 0 1 784.620264 596.97485a85.367404 85.367404 0 0 1-84.753373 85.230952C664.389529 730.373144 589.341262 801.651941 513.849528 801.651941c-91.285983 0-182.111442-104.36826-202.886167-145.883597-16.305942-32.611883-70.016622-173.207989-70.016621-246.414161v-68.225697a17.056424 17.056424 0 0 1 17.056424-17.056425c3.018987 0 302.939152-1.211006 433.233177-98.92726a17.056424 17.056424 0 1 1 20.467709 27.290278zM579.943172 665.200547a17.073481 17.073481 0 0 0-34.112848 0 17.073481 17.073481 0 0 0 34.112848 0z m167.187071-85.537968a984.223907 984.223907 0 0 1-24.13484 62.426513A51.049878 51.049878 0 0 0 750.507415 596.97485c0-6.055031-1.398627-11.803046-3.377172-17.312271z" fill="#ffffff" p-id="11702"></path></svg>